HIERARCHY
ROOT root
{
	OFFSET 0.000000 0.000000 0.000000
	CHANNELS 6 Xposition Yposition Zposition Zrotation Yrotation Xrotation
	JOINT lhip
	{
		OFFSET 0.058581 -0.082280 -0.017664
		CHANNELS 3 Zrotation Yrotation Xrotation
		JOINT lknee
		{
			OFFSET 0.043451 -0.386469 0.008037
			CHANNELS 3 Zrotation Yrotation Xrotation
			JOINT lankle
			{
				OFFSET -0.014790 -0.426874 -0.037428
				CHANNELS 3 Zrotation Yrotation Xrotation
				JOINT ltoe
				{
					OFFSET 0.041054 -0.060286 0.122042
					CHANNELS 3 Zrotation Yrotation Xrotation
					End Site
					{
						OFFSET 0.000000 0.000000 0.000000
					}
				}
			}
		}
	}
	JOINT rhip
	{
		OFFSET -0.060310 -0.090513 -0.013543
		CHANNELS 3 Zrotation Yrotation Xrotation
		JOINT rknee
		{
			OFFSET -0.043257 -0.383688 -0.004843
			CHANNELS 3 Zrotation Yrotation Xrotation
			JOINT rankle
			{
				OFFSET 0.019056 -0.420046 -0.034562
				CHANNELS 3 Zrotation Yrotation Xrotation
				JOINT rtoe
				{
					OFFSET -0.034840 -0.062106 0.130323
					CHANNELS 3 Zrotation Yrotation Xrotation
					End Site
					{
						OFFSET 0.000000 0.000000 0.000000
					}
				}
			}
		}
	}
	JOINT lowerback
	{
		OFFSET 0.004439 0.124404 -0.038385
		CHANNELS 3 Zrotation Yrotation Xrotation
		JOINT upperback
		{
			OFFSET 0.004488 0.137956 0.026820
			CHANNELS 3 Zrotation Yrotation Xrotation
			JOINT chest
			{
				OFFSET -0.002265 0.056032 0.002855
				CHANNELS 3 Zrotation Yrotation Xrotation
				JOINT lowerneck
				{
					OFFSET -0.013390 0.211636 -0.033468
					CHANNELS 3 Zrotation Yrotation Xrotation
					JOINT upperneck
					{
						OFFSET 0.010113 0.088937 0.050410
						CHANNELS 3 Zrotation Yrotation Xrotation
						End Site
						{
							OFFSET 0.000000 0.000000 0.000000
						}
					}
				}
				JOINT lclavicle
				{
					OFFSET 0.071702 0.114000 -0.018898
					CHANNELS 3 Zrotation Yrotation Xrotation
					JOINT lshoulder
					{
						OFFSET 0.122921 0.045205 -0.019046
						CHANNELS 3 Zrotation Yrotation Xrotation
						JOINT lelbow
						{
							OFFSET 0.255332 -0.015649 -0.022946
							CHANNELS 3 Zrotation Yrotation Xrotation
							JOINT lwrist
							{
								OFFSET 0.265709 0.012698 -0.007375
								CHANNELS 3 Zrotation Yrotation Xrotation
								End Site
								{
									OFFSET 0.000000 0.000000 0.000000
								}
							}
						}
					}
				}
				JOINT rclavicle
				{
					OFFSET -0.082954 0.112472 -0.023707
					CHANNELS 3 Zrotation Yrotation Xrotation
					JOINT rshoulder
					{
						OFFSET -0.113228 0.046853 -0.008472
						CHANNELS 3 Zrotation Yrotation Xrotation
						JOINT relbow
						{
							OFFSET -0.260127 -0.014369 -0.031269
							CHANNELS 3 Zrotation Yrotation Xrotation
							JOINT rwrist
							{
								OFFSET -0.269108 0.006794 -0.006027
								CHANNELS 3 Zrotation Yrotation Xrotation
								End Site
								{
									OFFSET 0.000000 0.000000 0.000000
								}
							}
						}
					}
				}
			}
		}
	}
}
MOTION
Frames: 10
Frame Time: 0.033333
-1.753365 0.297827 0.989999 102.206168 2.935045 87.758808 -2.752145 1.524230 -0.765342 -2.304646 -7.616455 7.883731 10.746380 13.522411 -14.860577 0.000000 -0.000000 0.000000 -1.426966 -2.155856 -8.985869 3.210208 -4.480163 42.691172 6.149862 -8.704379 -10.864374 0.000000 -0.000000 0.000000 -3.916006 -0.428015 10.961995 2.503515 -2.819941 -6.447581 0.302287 -3.162371 2.380171 7.080833 -9.903745 -1.211326 1.634605 -13.483896 9.486409 -24.835044 0.045876 3.371997 -53.759692 -7.528365 9.320069 6.158945 -24.768439 13.700000 -2.440013 2.868073 5.230582 25.804363 0.840661 -2.727886 58.313435 0.292811 15.081391 -14.197161 31.293001 2.220806 -1.406020 0.515166 0.047616 
-1.750775 0.298661 0.988558 101.270829 2.754782 87.328149 -2.669032 2.386451 -0.216537 -2.689384 -7.118469 7.887562 10.543865 13.397237 -14.750680 0.000000 -0.000000 0.000000 -1.945917 -2.288990 -8.860966 3.546698 -3.770997 43.301920 6.431361 -7.966677 -10.864075 0.000000 -0.000000 0.000000 -3.893949 -0.393866 11.332292 2.260841 -2.724198 -5.459680 -0.000513 -2.614545 1.712082 7.376528 -9.196960 -1.874520 1.511917 -13.363831 9.503627 -24.406888 0.244666 2.541426 -53.770461 -7.255309 9.536805 5.900968 -24.652029 14.443007 -2.002770 2.665976 5.338175 25.832466 0.955557 -2.800210 58.596468 0.654024 15.496910 -14.295047 31.487883 2.373808 -1.847520 0.415141 -0.069730 
-1.748107 0.299854 0.988270 100.417547 2.599315 86.923868 -2.675622 3.060602 0.545465 -2.871925 -6.668870 7.468507 10.266905 13.313421 -14.394332 0.000000 -0.000000 0.000000 -2.394562 -2.647814 -8.890818 3.564841 -3.478851 44.024024 6.736175 -7.319164 -10.375561 0.000000 -0.000000 0.000000 -3.658669 -0.451409 11.626717 1.935897 -2.599013 -4.799065 -0.396731 -2.091386 1.101533 7.495694 -8.599151 -2.229159 1.222694 -13.167874 10.087719 -24.170784 0.808509 1.879524 -53.850720 -7.141690 9.419708 5.917811 -24.863912 14.359814 -1.818639 2.563106 5.629205 25.839040 0.958497 -2.863784 58.944466 0.932869 15.741190 -14.066670 31.248196 2.360140 -1.940042 0.565089 0.353942 
-1.744597 0.301278 0.988230 99.509618 2.551071 86.426966 -2.601246 3.549710 1.452042 -2.992477 -5.996092 7.000905 9.816995 13.192886 -13.930545 0.000000 -0.000000 0.000000 -2.652843 -2.967202 -8.903538 3.317849 -3.457855 44.766478 6.926355 -6.916337 -9.517768 0.000000 -0.000000 0.000000 -3.229080 -0.509677 11.803143 1.584672 -2.302809 -3.882366 -0.837248 -1.571674 0.492832 7.572347 -8.110320 -2.801993 0.962601 -13.130001 10.832628 -23.910121 1.545617 1.424727 -54.262918 -7.324900 9.200526 6.189039 -25.657302 13.670539 -1.771557 2.263034 5.286453 25.921998 0.821456 -3.107964 59.172475 1.132116 16.051022 -13.712054 30.875436 2.336190 -1.688415 0.730371 0.762782 
-1.742871 0.302206 0.988861 99.069109 2.508124 86.344664 -2.588531 3.507238 1.633223 -3.117757 -5.656105 7.026313 9.527634 13.280234 -13.646237 0.000000 -0.000000 0.000000 -2.648634 -2.736442 -9.013328 3.323038 -3.270890 44.963775 6.944388 -7.274558 -9.136873 0.000000 -0.000000 0.000000 -3.211438 -0.495531 11.640141 1.463407 -1.979458 -3.803766 -1.026700 -1.223987 0.489633 7.873922 -7.924363 -3.191179 0.617061 -13.546228 12.188059 -23.860380 1.725349 1.706978 -54.402482 -7.671628 9.343013 6.466434 -26.136141 12.960680 -1.729604 1.881137 4.929282 26.623646 0.704755 -3.216788 58.648164 0.911149 16.404332 -13.738549 30.648415 1.929802 -1.580062 0.829875 0.859352 
-1.740750 0.303202 0.989371 98.437111 2.312092 86.049709 -2.712528 3.529818 1.762242 -3.236913 -5.546017 7.696542 9.396373 13.083518 -13.390007 0.000000 -0.000000 0.000000 -2.660440 -2.317983 -8.925120 3.124237 -2.734751 45.246862 6.720731 -7.403609 -8.776297 0.000000 -0.000000 0.000000 -3.315508 -0.436282 11.750738 1.496916 -1.670914 -3.699963 -0.911328 -1.131484 0.511408 7.496702 -7.551618 -3.236199 0.522449 -12.684413 11.631843 -23.997180 2.197031 1.546891 -54.524318 -7.463915 9.326065 6.246665 -27.382924 13.111561 -1.678161 1.514532 4.191537 26.418959 0.702786 -2.971909 58.738421 1.067011 16.526208 -13.633017 30.419500 2.127729 -1.615162 0.766245 0.804534 
-1.739145 0.303826 0.990322 97.832049 2.137761 85.819993 -2.913861 3.061727 1.511320 -3.226838 -5.930678 8.911274 9.118997 12.971863 -13.187101 0.000000 -0.000000 0.000000 -2.502387 -1.741643 -8.760098 2.837935 -1.974895 45.317391 6.463321 -7.361045 -8.736847 0.000000 -0.000000 0.000000 -3.381084 -0.301562 11.714646 1.490313 -1.391195 -3.693655 -0.810721 -0.937216 0.735339 7.315288 -7.055989 -3.428267 0.532626 -12.092484 11.107207 -23.841571 2.406019 1.436736 -54.896969 -7.348476 9.648329 6.041714 -28.490756 13.609710 -1.639159 1.259612 3.755175 26.423402 0.704281 -2.841543 58.759144 1.130344 16.583356 -13.679019 29.982859 2.129377 -1.603348 0.714050 0.663006 
-1.738171 0.304172 0.991697 97.485260 1.972331 85.661836 -3.057805 2.244756 1.148620 -3.267739 -6.978729 10.237163 8.828187 12.810043 -13.071019 0.000000 -0.000000 0.000000 -2.362405 -1.241521 -8.390852 2.635542 -1.335487 44.962838 6.251380 -7.422686 -8.848815 0.000000 -0.000000 0.000000 -3.436684 -0.060552 11.544649 1.528413 -1.238472 -3.434948 -0.749470 -0.803622 1.035978 7.158264 -6.669807 -3.769598 0.602606 -11.945187 10.606656 -23.725535 2.536138 1.161076 -55.126177 -7.420604 10.117000 5.703711 -29.483975 14.381234 -1.746191 1.120330 3.601200 26.500961 0.627740 -2.932056 58.829784 1.144504 16.570134 -13.715509 29.464012 2.132206 -1.560342 0.603646 0.467488 
-1.737721 0.304939 0.992898 97.328455 1.801412 85.626055 -3.080188 1.214771 0.895703 -3.495578 -8.073603 11.127181 8.461623 12.300709 -12.980333 0.000000 -0.000000 0.000000 -2.371574 -0.982968 -7.972281 2.569487 -0.868999 44.360024 6.122037 -7.577564 -9.060164 0.000000 -0.000000 0.000000 -3.327857 0.175951 11.254267 1.499606 -1.153194 -3.339302 -0.803462 -0.757083 1.002167 7.083272 -6.187054 -3.638696 0.412992 -11.686270 10.935249 -23.741011 2.525356 1.410025 -55.108226 -7.474323 10.478814 5.528448 -30.132304 14.851748 -2.010356 0.954403 3.420750 26.628358 0.703896 -2.583015 58.930220 0.966701 16.546784 -13.867130 28.712989 1.924946 -1.399847 0.488969 0.158454 
-1.737580 0.306033 0.992936 97.130850 1.593477 85.641709 -3.066625 0.724428 0.954043 -3.844695 -9.064202 11.297363 8.093789 11.618104 -13.303256 0.000000 -0.000000 0.000000 -2.617465 -0.969212 -7.671424 2.554218 -0.516225 43.940148 6.254341 -7.384531 -9.600665 0.000000 -0.000000 0.000000 -3.168679 0.450720 10.906761 1.407006 -0.956417 -3.071277 -0.921278 -0.583414 1.101865 7.086785 -6.026629 -3.787283 0.400551 -12.054931 10.946103 -23.637800 2.484743 1.343138 -55.194125 -7.663683 10.865094 5.292599 -30.727110 15.298535 -2.162398 0.710315 3.430214 26.851736 0.591845 -2.692478 58.866922 0.591868 16.462710 -13.648521 28.007470 2.042758 -1.172182 0.436994 0.097751 
